<mxfile host="Electron" modified="2024-04-26T08:04:59.575Z" agent="Mozilla/5.0 (Windows NT 10.0; Win64; x64) AppleWebKit/537.36 (KHTML, like Gecko) draw.io/24.2.5 Chrome/120.0.6099.109 Electron/28.1.0 Safari/537.36" etag="7lnBQVKEpIgnCZZgOzEY" version="24.2.5" type="device">
  <diagram id="R2lEEEUBdFMjLlhIrx00" name="Page-1">
    <mxGraphModel dx="740" dy="433" grid="1" gridSize="10" guides="1" tooltips="1" connect="1" arrows="1" fold="1" page="0" pageScale="1" pageWidth="850" pageHeight="1100" math="0" shadow="0" extFonts="Permanent Marker^https://fonts.googleapis.com/css?family=Permanent+Marker">
      <root>
        <mxCell id="0" />
        <mxCell id="1" parent="0" />
        <mxCell id="nZssSQf7hs99o9LZwXOP-30" value="진료과 추천" style="swimlane;fontStyle=0;childLayout=stackLayout;horizontal=1;startSize=30;horizontalStack=0;resizeParent=1;resizeParentMax=0;resizeLast=0;collapsible=1;marginBottom=0;whiteSpace=wrap;html=1;align=center;" vertex="1" parent="1">
          <mxGeometry x="310" y="130" width="140" height="180" as="geometry" />
        </mxCell>
        <mxCell id="nZssSQf7hs99o9LZwXOP-31" value="병명" style="text;strokeColor=none;fillColor=none;align=center;verticalAlign=middle;spacingLeft=4;spacingRight=4;overflow=hidden;points=[[0,0.5],[1,0.5]];portConstraint=eastwest;rotatable=0;whiteSpace=wrap;html=1;" vertex="1" parent="nZssSQf7hs99o9LZwXOP-30">
          <mxGeometry y="30" width="140" height="30" as="geometry" />
        </mxCell>
        <mxCell id="nZssSQf7hs99o9LZwXOP-32" value="증상" style="text;strokeColor=none;fillColor=none;align=center;verticalAlign=middle;spacingLeft=4;spacingRight=4;overflow=hidden;points=[[0,0.5],[1,0.5]];portConstraint=eastwest;rotatable=0;whiteSpace=wrap;html=1;" vertex="1" parent="nZssSQf7hs99o9LZwXOP-30">
          <mxGeometry y="60" width="140" height="30" as="geometry" />
        </mxCell>
        <mxCell id="nZssSQf7hs99o9LZwXOP-33" value="진료과" style="text;strokeColor=none;fillColor=none;align=center;verticalAlign=middle;spacingLeft=4;spacingRight=4;overflow=hidden;points=[[0,0.5],[1,0.5]];portConstraint=eastwest;rotatable=0;whiteSpace=wrap;html=1;" vertex="1" parent="nZssSQf7hs99o9LZwXOP-30">
          <mxGeometry y="90" width="140" height="30" as="geometry" />
        </mxCell>
        <mxCell id="nZssSQf7hs99o9LZwXOP-34" value="병원 명" style="text;strokeColor=none;fillColor=none;align=center;verticalAlign=middle;spacingLeft=4;spacingRight=4;overflow=hidden;points=[[0,0.5],[1,0.5]];portConstraint=eastwest;rotatable=0;whiteSpace=wrap;html=1;" vertex="1" parent="nZssSQf7hs99o9LZwXOP-30">
          <mxGeometry y="120" width="140" height="30" as="geometry" />
        </mxCell>
        <mxCell id="nZssSQf7hs99o9LZwXOP-44" value="병원 위치" style="text;strokeColor=none;fillColor=none;align=center;verticalAlign=middle;spacingLeft=4;spacingRight=4;overflow=hidden;points=[[0,0.5],[1,0.5]];portConstraint=eastwest;rotatable=0;whiteSpace=wrap;html=1;" vertex="1" parent="nZssSQf7hs99o9LZwXOP-30">
          <mxGeometry y="150" width="140" height="30" as="geometry" />
        </mxCell>
        <mxCell id="nZssSQf7hs99o9LZwXOP-62" value="&lt;div&gt;&lt;span style=&quot;background-color: initial;&quot;&gt;사용자&lt;/span&gt;&lt;br&gt;&lt;/div&gt;" style="whiteSpace=wrap;html=1;aspect=fixed;" vertex="1" parent="1">
          <mxGeometry x="580" y="510" width="80" height="80" as="geometry" />
        </mxCell>
        <mxCell id="nZssSQf7hs99o9LZwXOP-72" value="" style="edgeStyle=orthogonalEdgeStyle;rounded=0;orthogonalLoop=1;jettySize=auto;html=1;" edge="1" parent="1" source="nZssSQf7hs99o9LZwXOP-65" target="nZssSQf7hs99o9LZwXOP-62">
          <mxGeometry relative="1" as="geometry" />
        </mxCell>
        <mxCell id="nZssSQf7hs99o9LZwXOP-65" value="현재 위치" style="ellipse;whiteSpace=wrap;html=1;" vertex="1" parent="1">
          <mxGeometry x="710" y="523.34" width="80" height="53.33" as="geometry" />
        </mxCell>
        <mxCell id="nZssSQf7hs99o9LZwXOP-73" value="병명" style="whiteSpace=wrap;html=1;aspect=fixed;" vertex="1" parent="1">
          <mxGeometry x="580" y="770" width="80" height="80" as="geometry" />
        </mxCell>
        <mxCell id="nZssSQf7hs99o9LZwXOP-75" value="" style="edgeStyle=orthogonalEdgeStyle;rounded=0;orthogonalLoop=1;jettySize=auto;html=1;entryX=0.493;entryY=1.021;entryDx=0;entryDy=0;entryPerimeter=0;" edge="1" parent="1" source="nZssSQf7hs99o9LZwXOP-74" target="nZssSQf7hs99o9LZwXOP-62">
          <mxGeometry relative="1" as="geometry">
            <mxPoint x="620" y="600" as="targetPoint" />
            <Array as="points">
              <mxPoint x="620" y="600" />
              <mxPoint x="619" y="600" />
            </Array>
          </mxGeometry>
        </mxCell>
        <mxCell id="nZssSQf7hs99o9LZwXOP-76" value="" style="edgeStyle=orthogonalEdgeStyle;rounded=0;orthogonalLoop=1;jettySize=auto;html=1;" edge="1" parent="1" source="nZssSQf7hs99o9LZwXOP-74" target="nZssSQf7hs99o9LZwXOP-73">
          <mxGeometry relative="1" as="geometry" />
        </mxCell>
        <mxCell id="nZssSQf7hs99o9LZwXOP-74" value="진단" style="rhombus;whiteSpace=wrap;html=1;" vertex="1" parent="1">
          <mxGeometry x="580" y="640" width="80" height="80" as="geometry" />
        </mxCell>
        <mxCell id="nZssSQf7hs99o9LZwXOP-81" value="" style="edgeStyle=orthogonalEdgeStyle;rounded=0;orthogonalLoop=1;jettySize=auto;html=1;" edge="1" parent="1" source="nZssSQf7hs99o9LZwXOP-79" target="nZssSQf7hs99o9LZwXOP-73">
          <mxGeometry relative="1" as="geometry" />
        </mxCell>
        <mxCell id="nZssSQf7hs99o9LZwXOP-79" value="병원" style="ellipse;whiteSpace=wrap;html=1;" vertex="1" parent="1">
          <mxGeometry x="440" y="783.34" width="80" height="53.33" as="geometry" />
        </mxCell>
        <mxCell id="nZssSQf7hs99o9LZwXOP-104" style="edgeStyle=orthogonalEdgeStyle;rounded=0;orthogonalLoop=1;jettySize=auto;html=1;entryX=1;entryY=0.5;entryDx=0;entryDy=0;" edge="1" parent="1" source="nZssSQf7hs99o9LZwXOP-103" target="nZssSQf7hs99o9LZwXOP-73">
          <mxGeometry relative="1" as="geometry" />
        </mxCell>
        <mxCell id="nZssSQf7hs99o9LZwXOP-103" value="진료과" style="ellipse;whiteSpace=wrap;html=1;" vertex="1" parent="1">
          <mxGeometry x="710" y="783.34" width="80" height="53.33" as="geometry" />
        </mxCell>
        <mxCell id="nZssSQf7hs99o9LZwXOP-113" style="edgeStyle=orthogonalEdgeStyle;rounded=0;orthogonalLoop=1;jettySize=auto;html=1;exitX=0.5;exitY=1;exitDx=0;exitDy=0;entryX=0.5;entryY=0;entryDx=0;entryDy=0;" edge="1" parent="1" source="nZssSQf7hs99o9LZwXOP-112" target="nZssSQf7hs99o9LZwXOP-62">
          <mxGeometry relative="1" as="geometry" />
        </mxCell>
        <mxCell id="nZssSQf7hs99o9LZwXOP-112" value="현재 증상 (몸상태)" style="ellipse;whiteSpace=wrap;html=1;" vertex="1" parent="1">
          <mxGeometry x="580" y="420.00000000000006" width="80" height="53.33" as="geometry" />
        </mxCell>
        <mxCell id="nZssSQf7hs99o9LZwXOP-115" style="edgeStyle=orthogonalEdgeStyle;rounded=0;orthogonalLoop=1;jettySize=auto;html=1;entryX=0.5;entryY=1;entryDx=0;entryDy=0;" edge="1" parent="1" source="nZssSQf7hs99o9LZwXOP-114" target="nZssSQf7hs99o9LZwXOP-73">
          <mxGeometry relative="1" as="geometry" />
        </mxCell>
        <mxCell id="nZssSQf7hs99o9LZwXOP-114" value="질병 증상" style="ellipse;whiteSpace=wrap;html=1;" vertex="1" parent="1">
          <mxGeometry x="580" y="880" width="80" height="53.33" as="geometry" />
        </mxCell>
        <mxCell id="nZssSQf7hs99o9LZwXOP-116" value="사용자" style="swimlane;fontStyle=0;childLayout=stackLayout;horizontal=1;startSize=30;horizontalStack=0;resizeParent=1;resizeParentMax=0;resizeLast=0;collapsible=1;marginBottom=0;whiteSpace=wrap;html=1;align=center;" vertex="1" parent="1">
          <mxGeometry x="1190" y="795" width="140" height="90" as="geometry" />
        </mxCell>
        <mxCell id="nZssSQf7hs99o9LZwXOP-118" value="현재 증상" style="text;strokeColor=none;fillColor=none;align=center;verticalAlign=middle;spacingLeft=4;spacingRight=4;overflow=hidden;points=[[0,0.5],[1,0.5]];portConstraint=eastwest;rotatable=0;whiteSpace=wrap;html=1;" vertex="1" parent="nZssSQf7hs99o9LZwXOP-116">
          <mxGeometry y="30" width="140" height="30" as="geometry" />
        </mxCell>
        <mxCell id="nZssSQf7hs99o9LZwXOP-121" value="현재 위치" style="text;strokeColor=none;fillColor=none;align=center;verticalAlign=middle;spacingLeft=4;spacingRight=4;overflow=hidden;points=[[0,0.5],[1,0.5]];portConstraint=eastwest;rotatable=0;whiteSpace=wrap;html=1;" vertex="1" parent="nZssSQf7hs99o9LZwXOP-116">
          <mxGeometry y="60" width="140" height="30" as="geometry" />
        </mxCell>
        <mxCell id="nZssSQf7hs99o9LZwXOP-123" value="병명" style="swimlane;fontStyle=0;childLayout=stackLayout;horizontal=1;startSize=30;horizontalStack=0;resizeParent=1;resizeParentMax=0;resizeLast=0;collapsible=1;marginBottom=0;whiteSpace=wrap;html=1;align=center;" vertex="1" parent="1">
          <mxGeometry x="1420" y="780" width="140" height="120" as="geometry" />
        </mxCell>
        <mxCell id="nZssSQf7hs99o9LZwXOP-125" value="질병의 증상" style="text;strokeColor=none;fillColor=none;align=center;verticalAlign=middle;spacingLeft=4;spacingRight=4;overflow=hidden;points=[[0,0.5],[1,0.5]];portConstraint=eastwest;rotatable=0;whiteSpace=wrap;html=1;" vertex="1" parent="nZssSQf7hs99o9LZwXOP-123">
          <mxGeometry y="30" width="140" height="30" as="geometry" />
        </mxCell>
        <mxCell id="nZssSQf7hs99o9LZwXOP-129" value="병원" style="text;strokeColor=none;fillColor=none;align=center;verticalAlign=middle;spacingLeft=4;spacingRight=4;overflow=hidden;points=[[0,0.5],[1,0.5]];portConstraint=eastwest;rotatable=0;whiteSpace=wrap;html=1;" vertex="1" parent="nZssSQf7hs99o9LZwXOP-123">
          <mxGeometry y="60" width="140" height="30" as="geometry" />
        </mxCell>
        <mxCell id="nZssSQf7hs99o9LZwXOP-124" value="진료과" style="text;strokeColor=none;fillColor=none;align=center;verticalAlign=middle;spacingLeft=4;spacingRight=4;overflow=hidden;points=[[0,0.5],[1,0.5]];portConstraint=eastwest;rotatable=0;whiteSpace=wrap;html=1;" vertex="1" parent="nZssSQf7hs99o9LZwXOP-123">
          <mxGeometry y="90" width="140" height="30" as="geometry" />
        </mxCell>
        <mxCell id="nZssSQf7hs99o9LZwXOP-136" style="edgeStyle=orthogonalEdgeStyle;rounded=0;orthogonalLoop=1;jettySize=auto;html=1;exitX=1;exitY=0.5;exitDx=0;exitDy=0;endArrow=ERoneToMany;endFill=0;startArrow=ERoneToMany;startFill=0;" edge="1" parent="1" source="nZssSQf7hs99o9LZwXOP-118" target="nZssSQf7hs99o9LZwXOP-123">
          <mxGeometry relative="1" as="geometry">
            <mxPoint x="1240" y="840" as="targetPoint" />
            <Array as="points" />
          </mxGeometry>
        </mxCell>
        <mxCell id="nZssSQf7hs99o9LZwXOP-145" value="" style="edgeStyle=orthogonalEdgeStyle;rounded=0;orthogonalLoop=1;jettySize=auto;html=1;endArrow=none;endFill=0;startArrow=ERoneToMany;startFill=0;" edge="1" parent="1" source="nZssSQf7hs99o9LZwXOP-139" target="nZssSQf7hs99o9LZwXOP-123">
          <mxGeometry relative="1" as="geometry">
            <Array as="points" />
          </mxGeometry>
        </mxCell>
        <mxCell id="nZssSQf7hs99o9LZwXOP-139" value="병원" style="swimlane;fontStyle=0;childLayout=stackLayout;horizontal=1;startSize=30;horizontalStack=0;resizeParent=1;resizeParentMax=0;resizeLast=0;collapsible=1;marginBottom=0;whiteSpace=wrap;html=1;align=center;" vertex="1" parent="1">
          <mxGeometry x="1640" y="765" width="140" height="150" as="geometry" />
        </mxCell>
        <mxCell id="nZssSQf7hs99o9LZwXOP-144" value="병원 이름" style="text;strokeColor=none;fillColor=none;align=center;verticalAlign=middle;spacingLeft=4;spacingRight=4;overflow=hidden;points=[[0,0.5],[1,0.5]];portConstraint=eastwest;rotatable=0;whiteSpace=wrap;html=1;" vertex="1" parent="nZssSQf7hs99o9LZwXOP-139">
          <mxGeometry y="30" width="140" height="30" as="geometry" />
        </mxCell>
        <mxCell id="nZssSQf7hs99o9LZwXOP-165" value="병원 등급" style="text;strokeColor=none;fillColor=none;align=center;verticalAlign=middle;spacingLeft=4;spacingRight=4;overflow=hidden;points=[[0,0.5],[1,0.5]];portConstraint=eastwest;rotatable=0;whiteSpace=wrap;html=1;" vertex="1" parent="nZssSQf7hs99o9LZwXOP-139">
          <mxGeometry y="60" width="140" height="30" as="geometry" />
        </mxCell>
        <mxCell id="nZssSQf7hs99o9LZwXOP-140" value="보유 진료과" style="text;strokeColor=none;fillColor=none;align=center;verticalAlign=middle;spacingLeft=4;spacingRight=4;overflow=hidden;points=[[0,0.5],[1,0.5]];portConstraint=eastwest;rotatable=0;whiteSpace=wrap;html=1;" vertex="1" parent="nZssSQf7hs99o9LZwXOP-139">
          <mxGeometry y="90" width="140" height="30" as="geometry" />
        </mxCell>
        <mxCell id="nZssSQf7hs99o9LZwXOP-164" value="병원 위치" style="text;strokeColor=none;fillColor=none;align=center;verticalAlign=middle;spacingLeft=4;spacingRight=4;overflow=hidden;points=[[0,0.5],[1,0.5]];portConstraint=eastwest;rotatable=0;whiteSpace=wrap;html=1;" vertex="1" parent="nZssSQf7hs99o9LZwXOP-139">
          <mxGeometry y="120" width="140" height="30" as="geometry" />
        </mxCell>
        <mxCell id="nZssSQf7hs99o9LZwXOP-147" value="진료과" style="swimlane;fontStyle=0;childLayout=stackLayout;horizontal=1;startSize=30;horizontalStack=0;resizeParent=1;resizeParentMax=0;resizeLast=0;collapsible=1;marginBottom=0;whiteSpace=wrap;html=1;align=center;" vertex="1" parent="1">
          <mxGeometry x="1420" y="970" width="140" height="60" as="geometry" />
        </mxCell>
        <mxCell id="nZssSQf7hs99o9LZwXOP-148" value="관련 진료과" style="text;strokeColor=none;fillColor=none;align=center;verticalAlign=middle;spacingLeft=4;spacingRight=4;overflow=hidden;points=[[0,0.5],[1,0.5]];portConstraint=eastwest;rotatable=0;whiteSpace=wrap;html=1;" vertex="1" parent="nZssSQf7hs99o9LZwXOP-147">
          <mxGeometry y="30" width="140" height="30" as="geometry" />
        </mxCell>
        <mxCell id="nZssSQf7hs99o9LZwXOP-150" value="" style="edgeStyle=orthogonalEdgeStyle;rounded=0;orthogonalLoop=1;jettySize=auto;html=1;endArrow=none;endFill=0;startArrow=ERoneToMany;startFill=0;exitX=0.5;exitY=0;exitDx=0;exitDy=0;entryX=0.505;entryY=1.007;entryDx=0;entryDy=0;entryPerimeter=0;" edge="1" parent="1" source="nZssSQf7hs99o9LZwXOP-147" target="nZssSQf7hs99o9LZwXOP-124">
          <mxGeometry relative="1" as="geometry">
            <mxPoint x="1640" y="930" as="sourcePoint" />
            <mxPoint x="1540" y="930" as="targetPoint" />
            <Array as="points" />
          </mxGeometry>
        </mxCell>
        <mxCell id="nZssSQf7hs99o9LZwXOP-157" value="질병의 증상" style="swimlane;fontStyle=0;childLayout=stackLayout;horizontal=1;startSize=30;horizontalStack=0;resizeParent=1;resizeParentMax=0;resizeLast=0;collapsible=1;marginBottom=0;whiteSpace=wrap;html=1;align=center;" vertex="1" parent="1">
          <mxGeometry x="1420" y="660" width="140" height="60" as="geometry" />
        </mxCell>
        <mxCell id="nZssSQf7hs99o9LZwXOP-158" value="증상" style="text;strokeColor=none;fillColor=none;align=center;verticalAlign=middle;spacingLeft=4;spacingRight=4;overflow=hidden;points=[[0,0.5],[1,0.5]];portConstraint=eastwest;rotatable=0;whiteSpace=wrap;html=1;" vertex="1" parent="nZssSQf7hs99o9LZwXOP-157">
          <mxGeometry y="30" width="140" height="30" as="geometry" />
        </mxCell>
        <mxCell id="nZssSQf7hs99o9LZwXOP-163" style="edgeStyle=orthogonalEdgeStyle;rounded=0;orthogonalLoop=1;jettySize=auto;html=1;endArrow=ERoneToMany;endFill=0;" edge="1" parent="1" source="nZssSQf7hs99o9LZwXOP-123" target="nZssSQf7hs99o9LZwXOP-157">
          <mxGeometry relative="1" as="geometry">
            <mxPoint x="1510" y="740" as="targetPoint" />
          </mxGeometry>
        </mxCell>
      </root>
    </mxGraphModel>
  </diagram>
</mxfile>
